<?xml version="1.0" encoding="UTF-8"?>
<svg id="Capa_1" xmlns="http://www.w3.org/2000/svg" version="1.1" viewBox="0 0 1920 1080">
  <!-- Generator: Adobe Illustrator 29.3.1, SVG Export Plug-In . SVG Version: 2.1.0 Build 151)  -->
  <defs>
    <style>
      .st0 {
        fill: #fff;
      }

      .st1 {
        fill: #ff912e;
        stroke: #4d4d4d;
        stroke-miterlimit: 10;
      }
    </style>
  </defs>
  <rect class="st1" y=".47" width="1919.17" height="1079.53"/>
  <g>
    <g>
      <path class="st0" d="M514.79,655.16h112.39s23.91,3.17,23.91,21.89v62.13s-1.59,20.47-22.32,20.47h-113.98v-20.47h108.8s4.38.03,4.38-4.35v-54.2s0-3.57-4.78-3.57h-108.4v-21.89Z"/>
      <rect class="st0" x="671.15" y="655.16" width="123.05" height="21.89" rx="1" ry="1"/>
      <rect class="st0" x="671.15" y="696.46" width="123.05" height="21.89" rx="1" ry="1"/>
      <rect class="st0" x="671.15" y="739.23" width="123.05" height="21.89" rx="1" ry="1"/>
      <path class="st0" d="M809.97,666.1s-9.11-10.94,0-10.94h16.48s5.96-2.23,15.07,13.9c9.11,16.13,39.97,63.8,39.97,63.8l44.17-64.86s5.26-13.06,14.37-12.95c9.11.1,14.72.1,14.72.1,0,0,8.76.58-2.1,16.35-10.87,15.78-55.74,84.14-55.74,84.14,0,0,0,5.47-13.67,5.47s-14.72-3.01-16.83-6.52c-2.1-3.51-56.44-88.5-56.44-88.5Z"/>
      <path class="st0" d="M972.99,655.16h99.21s24.89,2.88,24.89,21.89v36.54s2.8,21.38-29.1,21.38l22.53,22.53c.9.9.26,2.43-1.01,2.43h-29.37c-1.26,0-2.47-.5-3.36-1.39l-44.88-44.95c-.91-.91-.26-2.46,1.02-2.46h56.47s3.86,0,3.86-5.61v-25.59s.63-4.24-4.24-4.24h-96.02v-20.52Z"/>
      <path class="st0" d="M1221.71,655.16h-73.73c-16.91,0-30.75,13.84-30.75,30.75v42.98c0,16.91,13.84,30.75,30.75,30.75h73.73c16.91,0,30.75-13.84,30.75-30.75v-42.98c0-16.91-13.84-30.75-30.75-30.75ZM1228.86,734.57c0,2.19-1.79,3.98-3.98,3.98h-79.51c-2.19,0-3.98-1.79-3.98-3.98v-53.55c0-2.19,1.79-3.98,3.98-3.98h79.51c2.19,0,3.98,1.79,3.98,3.98v53.55Z"/>
      <path class="st0" d="M1404.38,677.04h-102.14s-6.04,1.34-6.04,7.38-.58,9.5,5.47,10.07c6.04.58,77.69,4.03,77.69,4.03,0,0,25.03.45,25.03,30.79s-24.17,30.61-24.17,30.61h-91.79s-17.26-4.27-17.26-20.75h106.75s5.75-3.82,5.75-10.15-2.59-10.54-6.62-10.54-80.85-4.71-80.85-4.71c0,0-25.03-1.73-25.03-28.49s16.4-30.13,29.06-30.13h88.04s16.11,5.01,16.11,21.89Z"/>
    </g>
    <path class="st0" d="M909.3,323.6l28.8,16.02s63.18-7.19,100.53,53.54l30.26,17.52s-35.2-114.53-159.58-87.08Z"/>
    <path class="st0" d="M1053.98,469.47l18.46,11.01s-25.37,126.11-163,100.25l1.7-20.46s112.56,30.6,142.84-90.8Z"/>
    <path class="st0" d="M848.76,546.06l.12-31.48s-41.4-54.6-3.78-118.65l-.24-33.61s-82.67,87.28,3.9,183.75Z"/>
    <polygon class="st0" points="890.87 319.35 855.06 341.38 857.05 392.85 892.73 370.91 890.87 319.35"/>
    <polygon class="st0" points="895.52 395.54 858.19 418.5 861.22 588.02 897.34 565.8 895.52 395.54"/>
    <polygon class="st0" points="913.67 340.04 914.8 382.01 1064.26 463.14 1100.98 440.56 913.67 340.04"/>
    <polygon class="st0" points="916.45 415.3 917.1 457.15 998.7 503.46 1036.34 480.32 916.45 415.3"/>
    <polygon class="st0" points="917.9 491.79 918.85 533.45 937.14 543.12 972.8 521.19 917.9 491.79"/>
  </g>
</svg>