<?xml version="1.0" encoding="UTF-8"?>
<svg id="Capa_1" xmlns="http://www.w3.org/2000/svg" version="1.1" viewBox="0 0 1920 1080">
  <!-- Generator: Adobe Illustrator 29.3.1, SVG Export Plug-In . SVG Version: 2.1.0 Build 151)  -->
  <defs>
    <style>
      .st0, .st1 {
        fill: #31acff;
      }

      .st2, .st3 {
        fill: #fff;
      }

      .st4, .st1, .st3 {
        stroke: #4d4d4d;
        stroke-miterlimit: 10;
      }

      .st4, .st5 {
        fill: #ff912e;
      }
    </style>
  </defs>
  <rect class="st4" y="540" width="960" height="540"/>
  <rect class="st3" width="960" height="540"/>
  <rect class="st3" x="960" width="960" height="540"/>
  <g>
    <g>
      <path class="st2" d="M257.51,867.49h56.22s11.96,1.58,11.96,10.95v31.08s-.8,10.24-11.16,10.24h-57.02v-10.24h54.42s2.19.01,2.19-2.18v-27.11s0-1.79-2.39-1.79h-54.22v-10.95Z"/>
      <rect class="st2" x="335.72" y="867.49" width="61.55" height="10.95" rx="1" ry="1"/>
      <rect class="st2" x="335.72" y="888.15" width="61.55" height="10.95" rx="1" ry="1"/>
      <rect class="st2" x="335.72" y="909.54" width="61.55" height="10.95" rx="1" ry="1"/>
      <path class="st2" d="M405.16,872.96s-4.56-5.47,0-5.47h8.24s2.98-1.11,7.54,6.95,19.99,31.92,19.99,31.92l22.1-32.44s2.63-6.53,7.19-6.48c4.56.05,7.37.05,7.37.05,0,0,4.38.29-1.05,8.18s-27.88,42.09-27.88,42.09c0,0,0,2.74-6.84,2.74s-7.37-1.51-8.42-3.26-28.23-44.27-28.23-44.27Z"/>
      <path class="st2" d="M486.71,867.49h49.63s12.45,1.44,12.45,10.95v18.28s1.4,10.7-14.56,10.7l11.27,11.27c.45.45.13,1.22-.5,1.22h-14.69c-.63,0-1.23-.25-1.68-.7l-22.45-22.48c-.45-.45-.13-1.23.51-1.23h28.25s1.93,0,1.93-2.81v-12.8s.31-2.12-2.12-2.12h-48.03v-10.27Z"/>
      <path class="st2" d="M611.12,867.49h-36.88c-8.46,0-15.38,6.92-15.38,15.38v21.5c0,8.46,6.92,15.38,15.38,15.38h36.88c8.46,0,15.38-6.92,15.38-15.38v-21.5c0-8.46-6.92-15.38-15.38-15.38ZM614.7,907.21c0,1.09-.9,1.99-1.99,1.99h-39.77c-1.09,0-1.99-.9-1.99-1.99v-26.79c0-1.09.9-1.99,1.99-1.99h39.77c1.09,0,1.99.9,1.99,1.99v26.79Z"/>
      <path class="st2" d="M702.49,878.44h-51.09s-3.02.67-3.02,3.69-.29,4.75,2.73,5.04c3.02.29,38.86,2.01,38.86,2.01,0,0,12.52.23,12.52,15.4s-12.09,15.31-12.09,15.31h-45.91s-8.64-2.14-8.64-10.38h53.4s2.88-1.91,2.88-5.08-1.3-5.27-3.31-5.27-40.44-2.36-40.44-2.36c0,0-12.52-.86-12.52-14.25s8.2-15.07,14.54-15.07h44.04s8.06,2.51,8.06,10.95Z"/>
    </g>
    <path class="st2" d="M454.85,701.64l14.4,8.02s31.6-3.6,50.28,26.78l15.13,8.76s-17.61-57.29-79.82-43.56Z"/>
    <path class="st2" d="M527.22,774.6l9.24,5.51s-12.69,63.08-81.53,50.15l.85-10.24s56.31,15.31,71.45-45.42Z"/>
    <path class="st2" d="M424.56,812.92l.06-15.75s-20.71-27.31-1.89-59.35l-.12-16.81s-41.35,43.66,1.95,91.91Z"/>
    <polygon class="st2" points="445.63 699.51 427.71 710.53 428.71 736.28 446.56 725.3 445.63 699.51"/>
    <polygon class="st2" points="447.95 737.62 429.28 749.11 430.8 833.9 448.86 822.79 447.95 737.62"/>
    <polygon class="st2" points="457.03 709.86 457.6 730.85 532.36 771.44 550.73 760.14 457.03 709.86"/>
    <polygon class="st2" points="458.42 747.5 458.75 768.44 499.57 791.61 518.39 780.03 458.42 747.5"/>
    <polygon class="st2" points="459.15 785.77 459.62 806.61 468.77 811.44 486.61 800.47 459.15 785.77"/>
  </g>
  <g>
    <g>
      <path class="st5" d="M257.51,319.1h56.22s11.96,1.58,11.96,10.95v31.08s-.8,10.24-11.16,10.24h-57.02v-10.24h54.42s2.19.01,2.19-2.18v-27.11s0-1.79-2.39-1.79h-54.22v-10.95Z"/>
      <rect class="st5" x="335.72" y="319.1" width="61.55" height="10.95" rx="1" ry="1"/>
      <rect class="st5" x="335.72" y="339.76" width="61.55" height="10.95" rx="1" ry="1"/>
      <rect class="st5" x="335.72" y="361.16" width="61.55" height="10.95" rx="1" ry="1"/>
      <path class="st5" d="M405.16,324.58s-4.56-5.47,0-5.47h8.24s2.98-1.11,7.54,6.95,19.99,31.92,19.99,31.92l22.1-32.44s2.63-6.53,7.19-6.48,7.37.05,7.37.05c0,0,4.38.29-1.05,8.18-5.44,7.89-27.88,42.09-27.88,42.09,0,0,0,2.74-6.84,2.74s-7.37-1.51-8.42-3.26-28.23-44.27-28.23-44.27Z"/>
      <path class="st5" d="M486.71,319.1h49.63s12.45,1.44,12.45,10.95v18.28s1.4,10.7-14.56,10.7l11.27,11.27c.45.45.13,1.22-.5,1.22h-14.69c-.63,0-1.23-.25-1.68-.7l-22.45-22.48c-.45-.45-.13-1.23.51-1.23h28.25s1.93,0,1.93-2.81v-12.8s.31-2.12-2.12-2.12h-48.03v-10.27Z"/>
      <path class="st5" d="M611.12,319.1h-36.88c-8.46,0-15.38,6.92-15.38,15.38v21.5c0,8.46,6.92,15.38,15.38,15.38h36.88c8.46,0,15.38-6.92,15.38-15.38v-21.5c0-8.46-6.92-15.38-15.38-15.38ZM614.7,358.83c0,1.09-.9,1.99-1.99,1.99h-39.77c-1.09,0-1.99-.9-1.99-1.99v-26.79c0-1.09.9-1.99,1.99-1.99h39.77c1.09,0,1.99.9,1.99,1.99v26.79Z"/>
      <path class="st5" d="M702.49,330.05h-51.09s-3.02.67-3.02,3.69-.29,4.75,2.73,5.04c3.02.29,38.86,2.01,38.86,2.01,0,0,12.52.23,12.52,15.4s-12.09,15.31-12.09,15.31h-45.91s-8.64-2.14-8.64-10.38h53.4s2.88-1.91,2.88-5.08-1.3-5.27-3.31-5.27-40.44-2.36-40.44-2.36c0,0-12.52-.86-12.52-14.25s8.2-15.07,14.54-15.07h44.04s8.06,2.51,8.06,10.95Z"/>
    </g>
    <path class="st5" d="M454.85,153.25l14.4,8.02s31.6-3.6,50.28,26.78l15.13,8.76s-17.61-57.29-79.82-43.56Z"/>
    <path class="st5" d="M527.22,226.22l9.24,5.51s-12.69,63.08-81.53,50.15l.85-10.24s56.31,15.31,71.45-45.42Z"/>
    <path class="st5" d="M424.56,264.53l.06-15.75s-20.71-27.31-1.89-59.35l-.12-16.81s-41.35,43.66,1.95,91.91Z"/>
    <polygon class="st5" points="445.63 151.13 427.71 162.14 428.71 187.89 446.56 176.92 445.63 151.13"/>
    <polygon class="st5" points="447.95 189.24 429.28 200.72 430.8 285.52 448.86 274.41 447.95 189.24"/>
    <polygon class="st5" points="457.03 161.48 457.6 182.47 532.36 223.05 550.73 211.76 457.03 161.48"/>
    <polygon class="st5" points="458.42 199.12 458.75 220.05 499.57 243.22 518.39 231.64 458.42 199.12"/>
    <polygon class="st5" points="459.15 237.38 459.62 258.22 468.77 263.06 486.61 252.09 459.15 237.38"/>
  </g>
  <g>
    <g>
      <path class="st0" d="M1210.39,319.1h56.22s11.96,1.58,11.96,10.95v31.08s-.8,10.24-11.16,10.24h-57.02v-10.24h54.42s2.19.01,2.19-2.18v-27.11s0-1.79-2.39-1.79h-54.22v-10.95Z"/>
      <rect class="st0" x="1288.6" y="319.1" width="61.55" height="10.95" rx="1" ry="1"/>
      <rect class="st0" x="1288.6" y="339.76" width="61.55" height="10.95" rx="1" ry="1"/>
      <rect class="st0" x="1288.6" y="361.16" width="61.55" height="10.95" rx="1" ry="1"/>
      <path class="st0" d="M1358.04,324.58s-4.56-5.47,0-5.47h8.24s2.98-1.11,7.54,6.95c4.56,8.07,19.99,31.92,19.99,31.92l22.1-32.44s2.63-6.53,7.19-6.48,7.37.05,7.37.05c0,0,4.38.29-1.05,8.18-5.44,7.89-27.88,42.09-27.88,42.09,0,0,0,2.74-6.84,2.74s-7.37-1.51-8.42-3.26c-1.05-1.75-28.23-44.27-28.23-44.27Z"/>
      <path class="st0" d="M1439.58,319.1h49.63s12.45,1.44,12.45,10.95v18.28s1.4,10.7-14.56,10.7l11.27,11.27c.45.45.13,1.22-.5,1.22h-14.69c-.63,0-1.23-.25-1.68-.7l-22.45-22.48c-.45-.45-.13-1.23.51-1.23h28.25s1.93,0,1.93-2.81v-12.8s.31-2.12-2.12-2.12h-48.03v-10.27Z"/>
      <path class="st0" d="M1564,319.1h-36.88c-8.46,0-15.38,6.92-15.38,15.38v21.5c0,8.46,6.92,15.38,15.38,15.38h36.88c8.46,0,15.38-6.92,15.38-15.38v-21.5c0-8.46-6.92-15.38-15.38-15.38ZM1567.58,358.83c0,1.09-.9,1.99-1.99,1.99h-39.77c-1.09,0-1.99-.9-1.99-1.99v-26.79c0-1.09.9-1.99,1.99-1.99h39.77c1.09,0,1.99.9,1.99,1.99v26.79Z"/>
      <path class="st0" d="M1655.37,330.05h-51.09s-3.02.67-3.02,3.69-.29,4.75,2.73,5.04c3.02.29,38.86,2.01,38.86,2.01,0,0,12.52.23,12.52,15.4s-12.09,15.31-12.09,15.31h-45.91s-8.64-2.14-8.64-10.38h53.4s2.88-1.91,2.88-5.08-1.3-5.27-3.31-5.27-40.44-2.36-40.44-2.36c0,0-12.52-.86-12.52-14.25s8.2-15.07,14.54-15.07h44.04s8.06,2.51,8.06,10.95Z"/>
    </g>
    <path class="st0" d="M1407.73,153.25l14.4,8.02s31.6-3.6,50.28,26.78l15.13,8.76s-17.61-57.29-79.82-43.56Z"/>
    <path class="st0" d="M1480.1,226.22l9.24,5.51s-12.69,63.08-81.53,50.15l.85-10.24s56.31,15.31,71.45-45.42Z"/>
    <path class="st0" d="M1377.44,264.53l.06-15.75s-20.71-27.31-1.89-59.35l-.12-16.81s-41.35,43.66,1.95,91.91Z"/>
    <polygon class="st0" points="1398.51 151.13 1380.59 162.14 1381.59 187.89 1399.43 176.92 1398.51 151.13"/>
    <polygon class="st0" points="1400.83 189.24 1382.16 200.72 1383.68 285.52 1401.74 274.41 1400.83 189.24"/>
    <polygon class="st0" points="1409.91 161.48 1410.48 182.47 1485.24 223.05 1503.61 211.76 1409.91 161.48"/>
    <polygon class="st0" points="1411.3 199.12 1411.63 220.05 1452.45 243.22 1471.27 231.64 1411.3 199.12"/>
    <polygon class="st0" points="1412.03 237.38 1412.5 258.22 1421.65 263.06 1439.49 252.09 1412.03 237.38"/>
  </g>
  <rect class="st1" x="960" y="540" width="960" height="540"/>
  <g>
    <g>
      <path class="st2" d="M1217.51,867.49h56.22s11.96,1.58,11.96,10.95v31.08s-.8,10.24-11.16,10.24h-57.02v-10.24h54.42s2.19.01,2.19-2.18v-27.11s0-1.79-2.39-1.79h-54.22v-10.95Z"/>
      <rect class="st2" x="1295.72" y="867.49" width="61.55" height="10.95" rx="1" ry="1"/>
      <rect class="st2" x="1295.72" y="888.15" width="61.55" height="10.95" rx="1" ry="1"/>
      <rect class="st2" x="1295.72" y="909.54" width="61.55" height="10.95" rx="1" ry="1"/>
      <path class="st2" d="M1365.16,872.96s-4.56-5.47,0-5.47h8.24s2.98-1.11,7.54,6.95c4.56,8.07,19.99,31.92,19.99,31.92l22.1-32.44s2.63-6.53,7.19-6.48c4.56.05,7.37.05,7.37.05,0,0,4.38.29-1.05,8.18-5.44,7.89-27.88,42.09-27.88,42.09,0,0,0,2.74-6.84,2.74s-7.37-1.51-8.42-3.26c-1.05-1.75-28.23-44.27-28.23-44.27Z"/>
      <path class="st2" d="M1446.71,867.49h49.63s12.45,1.44,12.45,10.95v18.28s1.4,10.7-14.56,10.7l11.27,11.27c.45.45.13,1.22-.5,1.22h-14.69c-.63,0-1.23-.25-1.68-.7l-22.45-22.48c-.45-.45-.13-1.23.51-1.23h28.25s1.93,0,1.93-2.81v-12.8s.31-2.12-2.12-2.12h-48.03v-10.27Z"/>
      <path class="st2" d="M1571.12,867.49h-36.88c-8.46,0-15.38,6.92-15.38,15.38v21.5c0,8.46,6.92,15.38,15.38,15.38h36.88c8.46,0,15.38-6.92,15.38-15.38v-21.5c0-8.46-6.92-15.38-15.38-15.38ZM1574.7,907.21c0,1.09-.9,1.99-1.99,1.99h-39.77c-1.09,0-1.99-.9-1.99-1.99v-26.79c0-1.09.9-1.99,1.99-1.99h39.77c1.09,0,1.99.9,1.99,1.99v26.79Z"/>
      <path class="st2" d="M1662.49,878.44h-51.09s-3.02.67-3.02,3.69-.29,4.75,2.73,5.04c3.02.29,38.86,2.01,38.86,2.01,0,0,12.52.23,12.52,15.4s-12.09,15.31-12.09,15.31h-45.91s-8.64-2.14-8.64-10.38h53.4s2.88-1.91,2.88-5.08-1.3-5.27-3.31-5.27-40.44-2.36-40.44-2.36c0,0-12.52-.86-12.52-14.25s8.2-15.07,14.54-15.07h44.04s8.06,2.51,8.06,10.95Z"/>
    </g>
    <path class="st2" d="M1414.85,701.64l14.4,8.02s31.6-3.6,50.28,26.78l15.13,8.76s-17.61-57.29-79.82-43.56Z"/>
    <path class="st2" d="M1487.22,774.6l9.24,5.51s-12.69,63.08-81.53,50.15l.85-10.24s56.31,15.31,71.45-45.42Z"/>
    <path class="st2" d="M1384.56,812.92l.06-15.75s-20.71-27.31-1.89-59.35l-.12-16.81s-41.35,43.66,1.95,91.91Z"/>
    <polygon class="st2" points="1405.63 699.51 1387.71 710.53 1388.71 736.28 1406.56 725.3 1405.63 699.51"/>
    <polygon class="st2" points="1407.95 737.62 1389.28 749.11 1390.8 833.9 1408.86 822.79 1407.95 737.62"/>
    <polygon class="st2" points="1417.03 709.86 1417.6 730.85 1492.36 771.44 1510.73 760.14 1417.03 709.86"/>
    <polygon class="st2" points="1418.42 747.5 1418.75 768.44 1459.57 791.61 1478.39 780.03 1418.42 747.5"/>
    <polygon class="st2" points="1419.15 785.77 1419.62 806.61 1428.77 811.44 1446.61 800.47 1419.15 785.77"/>
  </g>
</svg>