<?xml version="1.0" encoding="UTF-8"?>
<svg id="Capa_1" xmlns="http://www.w3.org/2000/svg" version="1.1" viewBox="0 0 1920 1080">
  <!-- Generator: Adobe Illustrator 29.3.1, SVG Export Plug-In . SVG Version: 2.1.0 Build 151)  -->
  <defs>
    <style>
      .st0 {
        fill: #fff;
      }

      .st1 {
        fill: #31acff;
        stroke: #4d4d4d;
        stroke-miterlimit: 10;
      }
    </style>
  </defs>
  <rect class="st1" x="4.33" y=".47" width="1915.67" height="1077.56"/>
  <g>
    <g>
      <path class="st0" d="M518.18,653.96h112.18s23.87,3.16,23.87,21.85v62.02s-1.59,20.44-22.28,20.44h-113.77v-20.44h108.6s4.38.03,4.38-4.35v-54.1s0-3.57-4.77-3.57h-108.2v-21.85Z"/>
      <rect class="st0" x="674.25" y="653.96" width="122.83" height="21.85" rx="1" ry="1"/>
      <rect class="st0" x="674.25" y="695.19" width="122.83" height="21.85" rx="1" ry="1"/>
      <rect class="st0" x="674.25" y="737.88" width="122.83" height="21.85" rx="1" ry="1"/>
      <path class="st0" d="M812.83,664.89s-9.1-10.92,0-10.92h16.45s5.95-2.22,15.05,13.87c9.1,16.1,39.89,63.69,39.89,63.69l44.09-64.74s5.25-13.03,14.35-12.93c9.1.1,14.7.1,14.7.1,0,0,8.75.58-2.1,16.32-10.85,15.75-55.64,83.98-55.64,83.98,0,0,0,5.46-13.65,5.46s-14.7-3.01-16.8-6.51c-2.1-3.5-56.34-88.33-56.34-88.33Z"/>
      <path class="st0" d="M975.55,653.96h99.03s24.85,2.87,24.85,21.85v36.47s2.8,21.35-29.04,21.35l22.49,22.49c.9.9.26,2.43-1.01,2.43h-29.32c-1.26,0-2.46-.5-3.35-1.39l-44.8-44.86c-.91-.91-.26-2.46,1.02-2.46h56.36s3.85,0,3.85-5.6v-25.55s.62-4.24-4.24-4.24h-95.84v-20.48Z"/>
      <path class="st0" d="M1223.81,653.96h-73.59c-16.88,0-30.7,13.81-30.7,30.7v42.91c0,16.88,13.81,30.7,30.7,30.7h73.59c16.88,0,30.7-13.81,30.7-30.7v-42.91c0-16.88-13.81-30.7-30.7-30.7ZM1230.95,733.23c0,2.18-1.79,3.97-3.97,3.97h-79.37c-2.18,0-3.97-1.79-3.97-3.97v-53.45c0-2.18,1.79-3.97,3.97-3.97h79.37c2.18,0,3.97,1.79,3.97,3.97v53.45Z"/>
      <path class="st0" d="M1406.15,675.81h-101.96s-6.03,1.34-6.03,7.37-.57,9.48,5.46,10.05c6.03.57,77.55,4.02,77.55,4.02,0,0,24.99.45,24.99,30.73s-24.13,30.56-24.13,30.56h-91.62s-17.23-4.27-17.23-20.72h106.55s5.74-3.81,5.74-10.13-2.58-10.52-6.61-10.52-80.7-4.7-80.7-4.7c0,0-24.99-1.72-24.99-28.43s16.37-30.08,29.01-30.08h87.88s16.08,5,16.08,21.85Z"/>
    </g>
    <path class="st0" d="M911.97,323.01l28.74,16s63.06-7.17,100.34,53.44l30.2,17.49s-35.13-114.32-159.29-86.92Z"/>
    <path class="st0" d="M1056.38,468.61l18.43,10.99s-25.33,125.88-162.7,100.07l1.7-20.43s112.36,30.55,142.58-90.63Z"/>
    <path class="st0" d="M851.54,545.07l.12-31.43s-41.32-54.5-3.77-118.43l-.24-33.55s-82.52,87.12,3.89,183.41Z"/>
    <polygon class="st0" points="893.58 318.77 857.83 340.75 859.82 392.13 895.43 370.23 893.58 318.77"/>
    <polygon class="st0" points="898.22 394.82 860.96 417.74 863.98 586.94 900.03 564.77 898.22 394.82"/>
    <polygon class="st0" points="916.33 339.42 917.47 381.31 1066.65 462.3 1103.3 439.76 916.33 339.42"/>
    <polygon class="st0" points="919.11 414.54 919.75 456.31 1001.21 502.54 1038.78 479.44 919.11 414.54"/>
    <polygon class="st0" points="920.56 490.89 921.5 532.48 939.76 542.13 975.35 520.24 920.56 490.89"/>
  </g>
</svg>