<?xml version="1.0" encoding="UTF-8"?>
<svg id="Capa_1" xmlns="http://www.w3.org/2000/svg" version="1.1" viewBox="0 0 1920 1080">
  <!-- Generator: Adobe Illustrator 29.3.1, SVG Export Plug-In . SVG Version: 2.1.0 Build 151)  -->
  <defs>
    <style>
      .st0 {
        fill: #ff912e;
      }
    </style>
  </defs>
  <g>
    <path class="st0" d="M513.85,655.27h112.73s23.98,3.18,23.98,21.95v62.32s-1.6,20.54-22.39,20.54h-114.33v-20.54h109.13s4.4.03,4.4-4.37v-54.37s0-3.59-4.8-3.59h-108.73v-21.95Z"/>
    <rect class="st0" x="670.68" y="655.27" width="123.43" height="21.95" rx="1" ry="1"/>
    <rect class="st0" x="670.68" y="696.7" width="123.43" height="21.95" rx="1" ry="1"/>
    <rect class="st0" x="670.68" y="739.6" width="123.43" height="21.95" rx="1" ry="1"/>
    <path class="st0" d="M809.93,666.25s-9.14-10.98,0-10.98h16.53s5.98-2.23,15.12,13.94c9.14,16.18,40.09,64,40.09,64l44.31-65.05s5.28-13.1,14.42-12.99,14.77.1,14.77.1c0,0,8.79.58-2.11,16.4-10.9,15.82-55.91,84.39-55.91,84.39,0,0,0,5.48-13.71,5.48s-14.77-3.02-16.88-6.54c-2.11-3.52-56.61-88.77-56.61-88.77Z"/>
    <path class="st0" d="M973.45,655.27h99.51s24.97,2.89,24.97,21.95v36.65s2.81,21.45-29.19,21.45l22.6,22.6c.9.9.26,2.44-1.01,2.44h-29.46c-1.26,0-2.48-.5-3.37-1.4l-45.02-45.08c-.91-.91-.26-2.47,1.02-2.47h56.64s3.87,0,3.87-5.63v-25.67s.63-4.26-4.26-4.26h-96.31v-20.58Z"/>
    <path class="st0" d="M1222.92,655.27h-73.95c-16.97,0-30.85,13.88-30.85,30.85v43.11c0,16.97,13.88,30.85,30.85,30.85h73.95c16.97,0,30.85-13.88,30.85-30.85v-43.11c0-16.97-13.88-30.85-30.85-30.85ZM1230.1,734.93c0,2.2-1.8,3.99-3.99,3.99h-79.75c-2.2,0-3.99-1.8-3.99-3.99v-53.71c0-2.2,1.8-3.99,3.99-3.99h79.75c2.19,0,3.99,1.8,3.99,3.99v53.71Z"/>
    <path class="st0" d="M1406.15,677.23h-102.45s-6.06,1.34-6.06,7.4-.58,9.52,5.48,10.1c6.06.58,77.92,4.04,77.92,4.04,0,0,25.11.45,25.11,30.88s-24.24,30.71-24.24,30.71h-92.06s-17.32-4.29-17.32-20.82h107.07s5.77-3.83,5.77-10.18-2.6-10.57-6.64-10.57-81.1-4.73-81.1-4.73c0,0-25.11-1.73-25.11-28.57s16.45-30.22,29.15-30.22h88.31s16.16,5.02,16.16,21.95Z"/>
  </g>
  <path class="st0" d="M909.56,322.71l28.88,16.07s63.37-7.21,100.83,53.7l30.35,17.57s-35.3-114.88-160.07-87.35Z"/>
  <path class="st0" d="M1054.68,469.02l18.52,11.04s-25.45,126.5-163.49,100.56l1.7-20.52s112.91,30.69,143.27-91.07Z"/>
  <path class="st0" d="M848.84,545.85l.12-31.58s-41.52-54.77-3.79-119.01l-.24-33.72s-82.92,87.55,3.91,184.31Z"/>
  <polygon class="st0" points="891.08 318.44 855.16 340.54 857.16 392.17 892.94 370.16 891.08 318.44"/>
  <polygon class="st0" points="895.74 394.87 858.3 417.9 861.34 587.93 897.56 565.65 895.74 394.87"/>
  <polygon class="st0" points="913.95 339.2 915.08 381.3 1064.99 462.68 1101.82 440.02 913.95 339.2"/>
  <polygon class="st0" points="916.74 414.68 917.38 456.66 999.24 503.12 1036.98 479.9 916.74 414.68"/>
  <polygon class="st0" points="918.19 491.41 919.14 533.2 937.48 542.89 973.25 520.9 918.19 491.41"/>
</svg>