<?xml version="1.0" encoding="UTF-8"?>
<svg id="Capa_1" xmlns="http://www.w3.org/2000/svg" version="1.1" viewBox="0 0 1920 1080">
  <!-- Generator: Adobe Illustrator 29.3.1, SVG Export Plug-In . SVG Version: 2.1.0 Build 151)  -->
  <defs>
    <style>
      .st0 {
        fill: #31acff;
      }
    </style>
  </defs>
  <g>
    <path class="st0" d="M515.62,654.82h112.28s23.89,3.16,23.89,21.87v62.07s-1.59,20.46-22.3,20.46h-113.88v-20.46h108.7s4.38.03,4.38-4.35v-54.15s0-3.57-4.78-3.57h-108.3v-21.87Z"/>
    <rect class="st0" x="671.83" y="654.82" width="122.94" height="21.87" rx="1" ry="1"/>
    <rect class="st0" x="671.83" y="696.08" width="122.94" height="21.87" rx="1" ry="1"/>
    <rect class="st0" x="671.83" y="738.81" width="122.94" height="21.87" rx="1" ry="1"/>
    <path class="st0" d="M810.53,665.75s-9.11-10.93,0-10.93h16.46s5.95-2.22,15.06,13.89c9.11,16.11,39.93,63.74,39.93,63.74l44.13-64.8s5.25-13.04,14.36-12.94,14.71.1,14.71.1c0,0,8.76.58-2.1,16.34-10.86,15.76-55.69,84.06-55.69,84.06,0,0,0,5.46-13.66,5.46s-14.71-3.01-16.81-6.51c-2.1-3.5-56.39-88.41-56.39-88.41Z"/>
    <path class="st0" d="M973.39,654.82h99.12s24.87,2.88,24.87,21.87v36.5s2.8,21.36-29.07,21.36l22.51,22.51c.9.9.26,2.43-1.01,2.43h-29.34c-1.26,0-2.47-.5-3.35-1.39l-44.84-44.9c-.91-.91-.26-2.46,1.02-2.46h56.41s3.85,0,3.85-5.6v-25.57s.63-4.24-4.24-4.24h-95.93v-20.5Z"/>
    <path class="st0" d="M1221.88,654.82h-73.66c-16.9,0-30.72,13.83-30.72,30.72v42.94c0,16.9,13.83,30.72,30.72,30.72h73.66c16.9,0,30.72-13.83,30.72-30.72v-42.94c0-16.9-13.83-30.72-30.72-30.72ZM1229.03,734.16c0,2.19-1.79,3.98-3.98,3.98h-79.44c-2.19,0-3.98-1.79-3.98-3.98v-53.5c0-2.19,1.79-3.98,3.98-3.98h79.44c2.19,0,3.98,1.79,3.98,3.98v53.5Z"/>
    <path class="st0" d="M1404.38,676.68h-102.05s-6.04,1.34-6.04,7.38-.57,9.49,5.46,10.06c6.04.57,77.61,4.02,77.61,4.02,0,0,25.01.45,25.01,30.76s-24.15,30.59-24.15,30.59h-91.7s-17.25-4.27-17.25-20.73h106.65s5.75-3.82,5.75-10.14-2.59-10.53-6.61-10.53-80.78-4.71-80.78-4.71c0,0-25.01-1.72-25.01-28.46s16.39-30.1,29.03-30.1h87.96s16.1,5,16.1,21.87Z"/>
  </g>
  <path class="st0" d="M909.76,323.57l28.77,16.01s63.12-7.18,100.43,53.49l30.23,17.5s-35.16-114.43-159.43-87Z"/>
  <path class="st0" d="M1054.3,469.3l18.45,11s-25.35,125.99-162.85,100.16l1.7-20.44s112.46,30.57,142.7-90.71Z"/>
  <path class="st0" d="M849.28,545.83l.12-31.45s-41.36-54.55-3.77-118.54l-.24-33.58s-82.59,87.2,3.89,183.58Z"/>
  <polygon class="st0" points="891.35 319.32 855.57 341.33 857.56 392.75 893.2 370.83 891.35 319.32"/>
  <polygon class="st0" points="895.99 395.44 858.7 418.38 861.73 587.74 897.81 565.55 895.99 395.44"/>
  <polygon class="st0" points="914.13 339.99 915.26 381.92 1064.57 462.98 1101.26 440.42 914.13 339.99"/>
  <polygon class="st0" points="916.91 415.18 917.55 456.99 999.08 503.26 1036.68 480.14 916.91 415.18"/>
  <polygon class="st0" points="918.36 491.6 919.3 533.22 937.57 542.88 973.2 520.97 918.36 491.6"/>
</svg>